<?xml version="1.0" encoding="UTF-8"?>
<svg id="Layer_2" data-name="Layer 2" xmlns="http://www.w3.org/2000/svg" viewBox="0 0 116.6 112.1">
  <defs>
    <style>
      .cls-1 {
        fill: #f3f3f3;
      }

      .cls-2 {
        fill: #fff;
      }
    </style>
  </defs>
  <g id="email">
    <g>
      <path class="cls-1" d="m110.03,112.1H6.57C2.95,112.1,0,109.15,0,105.52v-51.19c0-.35.18-.68.47-.88.29-.2.67-.24.99-.11l56.84,22.76,56.84-22.76c.33-.13.7-.09.99.11.29.2.47.53.47.88v51.19c0,3.63-2.95,6.57-6.57,6.57ZM2.13,55.91v49.62c0,2.45,1.99,4.44,4.44,4.44h103.45c2.45,0,4.44-1.99,4.44-4.44v-49.62l-55.77,22.33c-.25.1-.54.1-.79,0L2.13,55.91Z"/>
      <path class="cls-1" d="m58.3,78.31c-.13,0-.27-.02-.4-.08L11.98,59.85c-.41-.16-.67-.55-.67-.99V17.83c0-3.62,2.95-6.57,6.57-6.57h80.84c3.62,0,6.57,2.95,6.57,6.57v41.03c0,.44-.26.83-.67.99l-45.92,18.39c-.13.05-.26.08-.4.08ZM13.45,58.14l44.86,17.96,44.86-17.96V17.83c0-2.45-1.99-4.44-4.44-4.44H17.88c-2.45,0-4.44,1.99-4.44,4.44v40.31Zm90.78.72h0,0Z"/>
      <path class="cls-1" d="m12.38,55.4H1.07c-.44,0-.83-.26-.99-.67-.16-.4-.06-.86.25-1.17l11.31-10.88c.31-.3.76-.38,1.16-.21.39.17.65.55.65.98v10.88c0,.59-.48,1.07-1.07,1.07Zm-8.67-2.13h7.6v-7.31l-7.6,7.31Z"/>
      <path class="cls-1" d="m71.87,13.39h-27.13c-.44,0-.83-.26-.99-.67-.16-.4-.06-.86.25-1.17L54.35,1.6c2.22-2.13,5.69-2.13,7.9,0h0l10.35,9.96c.31.3.41.76.25,1.17-.16.4-.55.67-.99.67Zm-24.48-2.13h21.84l-8.45-8.12c-1.39-1.33-3.56-1.33-4.94,0l-8.45,8.12Z"/>
      <path class="cls-1" d="m115.54,55.4h-11.31c-.59,0-1.07-.48-1.07-1.07v-10.88c0-.43.25-.81.65-.98.39-.17.85-.08,1.16.21l11.31,10.88c.31.3.41.76.25,1.17-.16.4-.55.67-.99.67Zm-10.25-2.13h7.6l-7.6-7.31v7.31Z"/>
      <path class="cls-1" d="m1.07,101.6c-.42,0-.82-.25-.99-.67-.22-.54.04-1.17.59-1.39l57.23-23.29c.55-.22,1.17.04,1.39.59s-.04,1.17-.59,1.39L1.47,101.52c-.13.05-.27.08-.4.08Z"/>
    </g>
    <path class="cls-2" d="m58.67,59.87c-2.59,0-4.99-.47-7.2-1.4-2.2-.93-4.12-2.2-5.74-3.81-1.62-1.61-2.89-3.48-3.79-5.62-.91-2.13-1.36-4.42-1.36-6.85s.46-4.72,1.38-6.87c.92-2.15,2.17-4.03,3.77-5.64,1.59-1.61,3.47-2.89,5.64-3.83,2.16-.95,4.49-1.42,6.97-1.42s4.8.45,6.95,1.34c2.15.89,4.02,2.07,5.62,3.55,1.59,1.47,2.84,3.18,3.75,5.11.9,1.93,1.36,3.95,1.36,6.06,0,1.7-.22,3.19-.65,4.46-.43,1.27-1.01,2.32-1.72,3.14-.72.83-1.55,1.45-2.49,1.87-.95.42-1.95.63-3,.63-1.6,0-2.88-.28-3.85-.85-.97-.57-1.69-1.23-2.15-1.99-.73.76-1.6,1.42-2.62,1.99s-2.24.85-3.67.85c-1.03,0-1.98-.18-2.86-.55-.88-.36-1.66-.88-2.33-1.54-.68-.66-1.2-1.47-1.58-2.41-.38-.95-.57-2-.57-3.16,0-1.43.26-2.77.77-4.01.51-1.24,1.2-2.32,2.07-3.22.87-.91,1.85-1.61,2.94-2.13,1.09-.51,2.24-.77,3.43-.77,1.46,0,2.64.3,3.55.89.91.59,1.63,1.3,2.17,2.11l.49-2.43,3.93.61-1.78,10.22c-.05.38-.1.72-.14,1.01-.04.3-.06.54-.06.73,0,.87.28,1.56.83,2.09.55.53,1.33.79,2.33.79.73,0,1.42-.18,2.07-.53.65-.35,1.22-.87,1.7-1.56.49-.69.87-1.55,1.16-2.59.28-1.04.43-2.25.43-3.63,0-1.86-.41-3.67-1.22-5.41s-1.93-3.29-3.37-4.64c-1.43-1.35-3.13-2.43-5.09-3.24-1.96-.81-4.09-1.22-6.39-1.22s-4.43.43-6.41,1.28c-1.97.85-3.68,2.01-5.11,3.49-1.43,1.47-2.56,3.2-3.39,5.17-.83,1.97-1.24,4.07-1.24,6.28s.41,4.34,1.22,6.3c.81,1.96,1.95,3.67,3.41,5.13,1.46,1.46,3.2,2.61,5.21,3.45,2.01.84,4.22,1.26,6.63,1.26,2,0,3.78-.23,5.35-.69,1.57-.46,3.12-1.13,4.66-2.03l.73,1.22c-1.57.95-3.22,1.69-4.97,2.23-1.74.54-3.67.81-5.78.81Zm-1.7-12.81c1.4,0,2.61-.53,3.61-1.58.59-.59,1.07-1.31,1.44-2.15.37-.84.55-1.73.55-2.68,0-1.3-.4-2.35-1.22-3.16-.81-.81-1.82-1.22-3.04-1.22-.7,0-1.37.14-1.99.43-.62.28-1.19.68-1.7,1.2-.59.59-1.06,1.3-1.4,2.11-.34.81-.51,1.7-.51,2.68,0,1.41.39,2.49,1.18,3.24.78.76,1.81,1.13,3.08,1.13Z"/>
  </g>
</svg>