<?xml version="1.0" encoding="UTF-8"?>
<svg id="Layer_2" data-name="Layer 2" xmlns="http://www.w3.org/2000/svg" viewBox="0 0 126.9 114.09">
  <defs>
    <style>
      .cls-1 {
        fill: #fff;
      }

      .cls-1, .cls-2, .cls-3 {
        stroke: #fff;
        stroke-miterlimit: 10;
      }

      .cls-2 {
        stroke-width: 2px;
      }

      .cls-2, .cls-3 {
        fill: none;
      }
    </style>
  </defs>
  <g id="drum_machine">
    <rect id="border" class="cls-2" x="1" y="1" width="124.9" height="112.09"/>
    <rect id="wsq-12" class="cls-1" x="99.21" y="86.09" width="20.81" height="20.81" rx="2.33" ry="2.33"/>
    <rect id="wsq-11" class="cls-1" x="68.43" y="86.09" width="20.82" height="20.81" rx="2.33" ry="2.33"/>
    <rect id="wsq-10" class="cls-1" x="37.65" y="86.09" width="20.81" height="20.81" rx="2.33" ry="2.33"/>
    <rect id="wsq-09" class="cls-1" x="6.88" y="86.09" width="20.82" height="20.81" rx="2.33" ry="2.33"/>
    <rect id="wsq-08" class="cls-1" x="99.21" y="57.49" width="20.81" height="20.82" rx="2.33" ry="2.33"/>
    <rect id="wsq-07" class="cls-1" x="68.43" y="57.49" width="20.82" height="20.82" rx="2.33" ry="2.33"/>
    <rect id="wsq-06" class="cls-1" x="37.65" y="57.49" width="20.81" height="20.82" rx="2.33" ry="2.33"/>
    <rect id="wsq-05" class="cls-1" x="6.88" y="57.49" width="20.82" height="20.82" rx="2.33" ry="2.33"/>
    <rect id="wsq-04" class="cls-1" x="99.21" y="28.89" width="20.81" height="20.81" rx="2.33" ry="2.33"/>
    <rect id="wsq-03" class="cls-1" x="68.43" y="28.89" width="20.82" height="20.81" rx="2.33" ry="2.33"/>
    <rect id="wsq-02" class="cls-1" x="37.65" y="28.89" width="20.81" height="20.81" rx="2.33" ry="2.33"/>
    <rect id="wsq-01" class="cls-1" x="6.88" y="28.89" width="20.82" height="20.81" rx="2.33" ry="2.33"/>
    <rect id="sq-12" class="cls-3" x="99.21" y="86.09" width="20.81" height="20.81" rx="2.33" ry="2.33"/>
    <rect id="sq-11" class="cls-3" x="68.43" y="86.09" width="20.82" height="20.81" rx="2.33" ry="2.33"/>
    <rect id="sq-10" class="cls-3" x="37.65" y="86.09" width="20.81" height="20.81" rx="2.33" ry="2.33"/>
    <rect id="sq-09" class="cls-3" x="6.88" y="86.09" width="20.82" height="20.81" rx="2.33" ry="2.33"/>
    <rect id="sq-08" class="cls-3" x="99.21" y="57.49" width="20.81" height="20.82" rx="2.33" ry="2.33"/>
    <rect id="sq-07" class="cls-3" x="68.43" y="57.49" width="20.82" height="20.82" rx="2.33" ry="2.33"/>
    <rect id="sq-06" class="cls-3" x="37.65" y="57.49" width="20.81" height="20.82" rx="2.33" ry="2.33"/>
    <rect id="sq-05" class="cls-3" x="6.88" y="57.49" width="20.82" height="20.82" rx="2.33" ry="2.33"/>
    <rect id="sq-04" class="cls-3" x="99.21" y="28.89" width="20.81" height="20.81" rx="2.33" ry="2.33"/>
    <rect id="sq-03" class="cls-3" x="68.43" y="28.89" width="20.82" height="20.81" rx="2.33" ry="2.33"/>
    <rect id="sq-02" class="cls-3" x="37.65" y="28.89" width="20.81" height="20.81" rx="2.33" ry="2.33"/>
    <rect id="sq-01" class="cls-3" x="6.88" y="28.89" width="20.82" height="20.81" rx="2.33" ry="2.33"/>
    <path id="knob1-border" class="cls-3" d="m92.15,7.27c-3.47,0-6.29,2.82-6.29,6.29s2.82,6.3,6.29,6.3,6.3-2.82,6.3-6.3-2.82-6.29-6.3-6.29Z"/>
    <line id="knob1" class="cls-3" x1="92.15" y1="7.27" x2="92.15" y2="13.57"/>
    <rect id="display_box" data-name="display box" class="cls-3" x="6.88" y="7.28" width="63.55" height="12.58"/>
    <path id="knob2-border" class="cls-3" d="m113.73,7.27c-3.47,0-6.29,2.82-6.29,6.29s2.82,6.3,6.29,6.3,6.3-2.82,6.3-6.3-2.82-6.29-6.3-6.29Z"/>
    <line id="knob2" class="cls-3" x1="113.73" y1="7.27" x2="113.73" y2="13.57"/>
  </g>
</svg>