<?xml version="1.0" encoding="UTF-8"?>
<svg id="Layer_2" data-name="Layer 2" xmlns="http://www.w3.org/2000/svg" viewBox="0 0 126.9 105.62">
  <defs>
    <style>
      .cls-1 {
        fill: #fff;
      }

      .cls-2 {
        stroke-width: 2px;
      }

      .cls-2, .cls-3 {
        fill: none;
        stroke: #fff;
        stroke-miterlimit: 10;
      }
    </style>
  </defs>
  <g id="music_player" data-name="music player">
    <rect class="cls-2" x="1" y="17.75" width="124.9" height="86.87"/>
    <rect class="cls-3" x="1" y="49.82" width="124.9" height="54.8"/>
    <path class="cls-1" d="m115.88,17.75H11.01V3c0-1.66,1.34-3,3-3h98.87c1.66,0,3,1.34,3,3v14.75Zm-2.77-11.71c0-1.66-1.34-3-3-3H16.78c-1.66,0-3,1.34-3,3v11.07h99.33V6.03Z"/>
    <rect class="cls-3" x="11.01" y="25.74" width="104.87" height="17.92" rx="1" ry="1"/>
    <path class="cls-3" d="m53.72,31.66h55.69c.55,0,1,.45,1,1v4.1c0,.54-.44.98-.98.98h-55.71c-.55,0-1-.45-1-1v-4.08c0-.55.45-1,1-1Z"/>
    <rect class="cls-3" x="49.1" y="49.82" width="28.69" height="54.8"/>
    <rect class="cls-3" x="49.1" y="68.91" width="28.69" height="35.7"/>
    <rect class="cls-3" x="52.72" y="77.57" width="21.47" height="16.22" rx="1" ry="1"/>
    <circle id="knob1" class="cls-3" cx="22.63" cy="34.7" r="4.86"/>
    <circle id="knob2" class="cls-3" cx="38.35" cy="34.7" r="4.86"/>
    <g id="left_speaker">
      <circle id="L1" class="cls-3" cx="25.21" cy="76.8" r="6"/>
      <circle id="L2" class="cls-3" cx="25.21" cy="76.8" r="9.5"/>
      <circle id="L3" class="cls-3" cx="25.21" cy="76.8" r="13"/>
      <circle id="L4" class="cls-3" cx="25.21" cy="76.8" r="16.5"/>
      <circle id="L5" class="cls-3" cx="25.21" cy="76.8" r="20"/>
    </g>
    <g id="right_speaker">
      <circle id="R1" class="cls-3" cx="101.56" cy="76.8" r="6"/>
      <circle id="R2" class="cls-3" cx="101.56" cy="76.8" r="9.5"/>
      <circle id="R3" class="cls-3" cx="101.56" cy="76.8" r="13"/>
      <circle id="R4" class="cls-3" cx="101.56" cy="76.8" r="16.5"/>
      <circle id="R5" class="cls-3" cx="101.56" cy="76.8" r="20"/>
    </g>
    <path class="cls-3" d="m67.25,86.55l-6.61,3.81c-.67.38-1.5-.1-1.5-.87v-7.63c0-.77.83-1.25,1.5-.87l6.61,3.81c.67.38.67,1.35,0,1.73Z"/>
    <line id="radio_pin" class="cls-3" x1="55.58" y1="33.56" x2="55.58" y2="37.74"/>
  </g>
</svg>