<?xml version="1.0" encoding="UTF-8"?>
<svg id="Layer_2" data-name="Layer 2" xmlns="http://www.w3.org/2000/svg" viewBox="0 0 114.11 114.09">
  <defs>
    <style>
      .cls-1 {
        fill: none;
        stroke: #fff;
        stroke-miterlimit: 10;
        stroke-width: 2px;
      }
    </style>
  </defs>
  <g id="settings">
    <path class="cls-1" d="m112.31,47.57h-9.4c-.72,0-1.34-.49-1.51-1.19-1.12-4.64-2.94-9.06-5.44-13.12-.38-.62-.29-1.41.22-1.92l6.65-6.65c-3.69-5.22-8.2-9.72-13.41-13.41l-6.65,6.65c-.51.51-1.3.6-1.92.22-4.06-2.5-8.48-4.32-13.12-5.44-.7-.17-1.19-.79-1.19-1.51V1.79c-6.24-1.06-12.72-1.06-18.96,0v9.4c0,.72-.49,1.34-1.19,1.51-4.64,1.12-9.06,2.94-13.12,5.44-.62.38-1.41.29-1.92-.22l-6.65-6.65c-5.22,3.69-9.72,8.2-13.41,13.41l6.65,6.65c.51.51.6,1.3.22,1.92-.12.2-.24.39-.36.59-.04.09-.09.17-.15.25-2.24,3.83-3.9,7.96-4.94,12.28-.17.7-.79,1.19-1.51,1.19H1.8c-.53,3.12-.8,6.31-.8,9.48s.27,6.36.8,9.48h9.4c.72,0,1.34.49,1.51,1.19.92,3.85,2.34,7.54,4.21,11,0,.01.01.02.02.03.03.05.06.1.08.16.36.65.73,1.29,1.12,1.93.38.62.29,1.41-.22,1.91l-6.65,6.65c3.69,5.22,8.2,9.72,13.41,13.41l6.65-6.65c.51-.51,1.3-.6,1.92-.22,4.06,2.5,8.48,4.32,13.12,5.44.7.17,1.19.79,1.19,1.51v9.4c6.24,1.06,12.72,1.06,18.96,0v-9.4c0-.72.49-1.34,1.19-1.51,4.64-1.12,9.06-2.94,13.12-5.44.62-.38,1.41-.29,1.92.22l6.65,6.65c5.22-3.69,9.72-8.2,13.41-13.41l-6.65-6.65c-.51-.51-.6-1.3-.22-1.91,2.5-4.06,4.32-8.48,5.44-13.12.17-.7.79-1.19,1.51-1.19h9.4c.53-3.12.8-6.31.8-9.48s-.27-6.36-.8-9.48Zm-30.96,17.15c-.44,1.4-1.01,2.78-1.7,4.09-2.43,4.66-6.18,8.41-10.84,10.84-1.31.69-2.68,1.26-4.09,1.7-2.47.78-5.05,1.17-7.67,1.17s-5.2-.39-7.67-1.18c-1.4-.44-2.78-1.01-4.09-1.7-4.66-2.43-8.41-6.18-10.84-10.84-.69-1.31-1.26-2.68-1.7-4.09-.78-2.47-1.17-5.05-1.17-7.67s.39-5.2,1.18-7.67c.44-1.4,1.01-2.78,1.7-4.09,2.43-4.66,6.18-8.41,10.84-10.84,1.31-.69,2.68-1.26,4.09-1.7,4.94-1.56,10.39-1.56,15.34,0,1.4.44,2.78,1.01,4.09,1.7,4.66,2.43,8.41,6.18,10.84,10.84.69,1.31,1.26,2.68,1.7,4.09.78,2.47,1.17,5.05,1.17,7.67s-.39,5.2-1.18,7.67Z"/>
  </g>
</svg>