<?xml version="1.0" encoding="UTF-8"?>
<svg id="Layer_2" data-name="Layer 2" xmlns="http://www.w3.org/2000/svg" viewBox="0 0 126.91 114.1">
  <defs>
    <style>
      .cls-1 {
        fill: #fff;
      }

      .cls-2 {
        fill: none;
        stroke: #fff;
        stroke-miterlimit: 10;
        stroke-width: 2px;
      }
    </style>
  </defs>
  <g id="terminal">
    <path id="border_active" class="cls-1" d="m26.28,32.55h15.7v2.44h-15.7v-2.44Zm-14.09-6.71l9.28-4.13-9.28-4.16v-3.02l12.43,5.75v2.81l-12.43,5.75v-2.99ZM126.9,0c-34.41,0-68.82,0-103.22,0C15.78,0,7.89,0,0,0v114.08h126.9V0Z"/>
    <path id="border" class="cls-2" d="m125.91,1c-33.86,0-67.73,0-101.59,0-7.77,0-15.54,0-23.3,0v112.09h124.9V1Z"/>
    <path id="arrow" class="cls-1" d="m12.19,25.84l9.28-4.13-9.28-4.16v-3.02l12.43,5.75v2.81l-12.43,5.75v-2.99Z"/>
    <path id="underscore" class="cls-1" d="m26.28,32.55h15.7v2.44h-15.7v-2.44Z"/>
  </g>
</svg>