<?xml version="1.0" encoding="UTF-8"?>
<svg id="Layer_2" data-name="Layer 2" xmlns="http://www.w3.org/2000/svg" viewBox="0 0 67.18 113.21">
  <defs>
    <style>
      .cls-1 {
        fill: #fff;
      }

      .cls-2 {
        stroke-width: 2px;
      }

      .cls-2, .cls-3 {
        fill: none;
        stroke: #fff;
        stroke-miterlimit: 10;
      }
    </style>
  </defs>
  <g id="trash">
    <path id="trash_Compound_Path_" data-name="trash &amp;lt;Compound Path&amp;gt;" class="cls-1" d="m38,47.02l9.15.46s.06,0,.09,0c.46,0,.9-.18,1.24-.49.36-.34.56-.81.56-1.3v-8.55c0-.79-.52-1.49-1.28-1.72l-9.15-2.76c-.8-.24-1.66.1-2.08.83l-2.39,4.18c-.26.46-.31,1-.13,1.5l2.39,6.66c.25.68.88,1.15,1.6,1.19Zm.09-13.05l9.38,2.84-.19,9.18-9.4-.62-2.37-6.96,2.58-4.44Z"/>
    <path class="cls-2" d="m10.9,53.75h55.28v50.96c0,4.14-3.36,7.5-7.5,7.5H18.4c-4.14,0-7.5-3.36-7.5-7.5v-50.96h0Z"/>
    <rect class="cls-1" x="24.28" y="70.54" width="1.8" height="28.27"/>
    <rect class="cls-1" x="37.7" y="70.54" width="1.8" height="28.27"/>
    <rect class="cls-1" x="51.12" y="70.54" width="1.8" height="28.27"/>
    <circle class="cls-1" cx="18.35" cy="61.45" r="1.59"/>
    <circle class="cls-1" cx="18.35" cy="105.69" r="1.59"/>
    <circle class="cls-1" cx="58.49" cy="61.45" r="1.59"/>
    <circle class="cls-1" cx="58.49" cy="105.69" r="1.59"/>
    <g id="Hand">
      <path class="cls-3" d="m38.57,1.29c1.37-.12,2.72.33,3.73,1.24l18.49,13.76c.67.5.58,1.11.15,1.72-.83,1.16-2.36,1.57-3.74,1.21-1.55-.41-3.82-1.52-4.89-2.05l-12.04-5.75c-.44-.23-.94-.3-1.42-.19l-8.93,1.83c-.65.13-1.21.56-1.5,1.15-.3.6-.3,1.29-.02,1.9l3.99,8.36c.45.95-.24,2.05-1.29,2.05h0c-.97,0-1.91-.39-2.59-1.07l-7.2-7.2c-.41-.41-.96-.63-1.53-.63h-7.37V3.65l26.17-2.36Z"/>
      <rect class="cls-3" x=".5" y=".5" width="7.57" height="20.45"/>
    </g>
  </g>
</svg>