<?xml version="1.0" encoding="UTF-8"?>
<svg id="Layer_2" data-name="Layer 2" xmlns="http://www.w3.org/2000/svg" viewBox="0 0 126.9 114.1">
  <defs>
    <style>
      .cls-1 {
        fill: #f3f3f3;
      }

      .cls-2, .cls-3 {
        fill: #fff;
      }

      .cls-3, .cls-4, .cls-5 {
        stroke: #fff;
        stroke-miterlimit: 10;
      }

      .cls-4 {
        stroke-width: 2px;
      }

      .cls-4, .cls-5 {
        fill: none;
      }
    </style>
  </defs>
  <g id="web_browser">
    <path id="border" class="cls-4" d="m125.9,1c-33.86,0-67.73,0-101.59,0-7.77,0-15.54,0-23.3,0v112.09h124.9s0,0,0,0V1Z"/>
    <line class="cls-3" x1="1" y1="18.71" x2="125.9" y2="18.71"/>
    <path id="empty_buttons" data-name="empty buttons" class="cls-1" d="m9.53,13.31c-2.09,0-3.8-1.7-3.8-3.8s1.7-3.8,3.8-3.8,3.8,1.7,3.8,3.8-1.7,3.8-3.8,3.8Zm0-5.92c-1.17,0-2.13.95-2.13,2.13s.96,2.12,2.13,2.12,2.13-.95,2.13-2.12-.96-2.13-2.13-2.13Zm17.27,5.92c-2.09,0-3.8-1.7-3.8-3.8s1.7-3.8,3.8-3.8,3.8,1.7,3.8,3.8-1.71,3.8-3.8,3.8Zm0-5.92c-1.18,0-2.13.95-2.13,2.13s.95,2.12,2.13,2.12,2.13-.95,2.13-2.12-.96-2.13-2.13-2.13Zm-8.63,5.92c-2.09,0-3.8-1.7-3.8-3.8s1.71-3.8,3.8-3.8,3.8,1.7,3.8,3.8-1.7,3.8-3.8,3.8Zm0-5.92c-1.18,0-2.13.95-2.13,2.13s.96,2.12,2.13,2.12,2.12-.95,2.12-2.12-.95-2.13-2.12-2.13Z"/>
    <g id="full_buttons" data-name="full buttons">
      <path class="cls-1" d="m9.53,13.31c-2.09,0-3.8-1.7-3.8-3.8s1.7-3.8,3.8-3.8,3.8,1.7,3.8,3.8-1.7,3.8-3.8,3.8Z"/>
      <path class="cls-1" d="m26.8,13.31c-2.09,0-3.8-1.7-3.8-3.8s1.7-3.8,3.8-3.8,3.8,1.7,3.8,3.8-1.71,3.8-3.8,3.8Z"/>
      <path class="cls-1" d="m18.16,13.31c-2.09,0-3.8-1.7-3.8-3.8s1.71-3.8,3.8-3.8,3.8,1.7,3.8,3.8-1.7,3.8-3.8,3.8Z"/>
    </g>
    <g id="empty_shapes" data-name="empty shapes">
      <rect id="empty_rectangle" data-name="empty rectangle" class="cls-5" x="23.6" y="51.33" width="79.7" height="25.88" rx="3.53" ry="3.53"/>
      <path id="emppty_heart" data-name="emppty heart" class="cls-2" d="m72.66,58.68c-.73-1.58-2.1-2.68-3.67-2.95-.31-.05-.63-.08-.94-.08-2.57,0-4.53,1.76-5.26,2.53-.91-.95-2.78-2.53-5.26-2.53-.31,0-.63.03-.94.08-1.57.26-2.94,1.37-3.67,2.95-1,2.17-.34,5.41.44,7.01,1.14,2.32,4.47,5.3,9.14,8.18l.28.18.28-.18c4.67-2.88,8-5.87,9.14-8.18.79-1.6,1.45-4.83.44-7.01Zm-4.61-2.06c.26,0,.52.02.78.07,1.25.21,2.36,1.11,2.95,2.4.86,1.87.25,4.79-.43,6.18-1.04,2.12-4.16,4.9-8.56,7.65-4.4-2.74-7.52-5.53-8.56-7.65-.68-1.39-1.29-4.31-.43-6.18.6-1.29,1.7-2.19,2.96-2.4.26-.04.52-.07.78-.07,2.13,0,3.78,1.4,4.57,2.24l.68.71.69-.7c.64-.68,2.37-2.25,4.58-2.25Z"/>
      <path id="empty_web" data-name="empty web" class="cls-2" d="m62.79,73.98c-5.05,0-9.15-4.1-9.15-9.15s4.11-9.15,9.15-9.15,9.15,4.1,9.15,9.15-4.11,9.15-9.15,9.15Zm.35-.72h.09c.15-.01.29-.02.42-.04h.02s.02,0,.02,0c.94-.5,1.77-1.74,2.33-3.49l.03-.1-.1-.02c-.88-.13-1.79-.2-2.72-.22h-.09s0,3.87,0,3.87Zm-.79-3.87c-.93.02-1.84.09-2.72.22l-.1.02.03.1c.56,1.75,1.39,2.99,2.32,3.48h.02s.02,0,.02,0c.14.02.28.03.44.04h.09s0-3.87,0-3.87h-.09Zm-3.61.37c-.74.14-1.48.32-2.21.53l-.13.04.09.1c1,1.12,2.27,1.95,3.68,2.41l.28.09-.18-.23c-.58-.73-1.07-1.73-1.43-2.89l-.02-.08h-.08Zm8,.06c-.36,1.16-.86,2.16-1.43,2.89l-.18.23.28-.09c1.41-.46,2.68-1.3,3.68-2.41l.09-.1-.13-.04c-.72-.22-1.47-.39-2.21-.53h-.08s-.02.06-.02.06Zm-12.38-4.55c.08,1.6.62,3.14,1.56,4.45l.04.05.06-.02c.83-.26,1.68-.47,2.53-.63l.09-.02-.02-.09c-.28-1.16-.44-2.42-.47-3.74v-.09h-3.78v.09Zm13.08,0c-.03,1.32-.19,2.58-.47,3.74l-.02.09.09.02c.85.16,1.7.38,2.53.63l.06.02.04-.05c.93-1.31,1.47-2.85,1.55-4.44v-.09s-3.78,0-3.78,0v.09Zm-8.6,0c.03,1.28.19,2.5.48,3.63l.02.08h.08c.95-.15,1.94-.24,2.93-.26h.09v-3.54h-3.6v.09Zm4.3,3.45h.09c.99.02,1.98.1,2.93.25h.08s.02-.07.02-.07c.29-1.13.45-2.35.48-3.63v-.09s-3.6,0-3.6,0v3.54Zm6.42-8.82c-.81.25-1.67.47-2.53.63l-.09.02.02.09c.29,1.16.45,2.42.47,3.74v.09h3.78v-.09c-.09-1.6-.63-3.14-1.56-4.45l-.04-.05-.06.02Zm-3.41.78c-.95.14-1.94.22-2.93.24h-.09v3.55h3.6v-.09c-.03-1.27-.2-2.5-.48-3.63l-.02-.08h-.08Zm-6.84.07c-.29,1.13-.45,2.36-.48,3.63v.09s3.6,0,3.6,0v-3.54h-.09c-.99-.02-1.98-.1-2.93-.25h-.08s-.02.07-.02.07Zm-3.41-.82c-.93,1.31-1.47,2.84-1.55,4.45v.09s3.78,0,3.78,0v-.09c.03-1.32.19-2.58.48-3.74l.02-.09-.09-.02c-.86-.16-1.72-.38-2.53-.63l-.06-.02-.04.05Zm7.23.33h.09c.92-.02,1.83-.1,2.72-.22l.1-.02-.03-.1c-.56-1.75-1.39-2.99-2.32-3.48h-.01s-.02,0-.02,0c-.14-.02-.27-.03-.43-.03h-.09s0,3.87,0,3.87Zm-.8-3.87c-.15,0-.29.02-.43.03h-.02s-.02,0-.02,0c-.94.5-1.76,1.74-2.33,3.49l-.03.1.1.02c.88.13,1.8.2,2.72.22h.09s0-3.87,0-3.87h-.09Zm2.96.54c.58.73,1.07,1.73,1.43,2.89l.02.08h.08c.74-.16,1.48-.34,2.2-.55l.13-.04-.09-.1c-1-1.11-2.27-1.95-3.68-2.41l-.28-.09.18.23Zm-5.14-.14c-1.41.46-2.68,1.29-3.68,2.41l-.09.1.13.04c.72.21,1.46.39,2.2.53h.08s.02-.06.02-.06c.36-1.16.86-2.16,1.43-2.89l.18-.23-.28.09Z"/>
      <polygon id="empty_star" data-name="empty star" class="cls-5" points="62.79 56.5 65.5 61.98 71.55 62.86 67.17 67.13 68.21 73.16 62.79 70.31 57.38 73.16 58.42 67.13 54.04 62.86 60.09 61.98 62.79 56.5"/>
    </g>
  </g>
</svg>